<mxfile host="app.diagrams.net" agent="Mozilla/5.0 (Windows NT 10.0; Win64; x64) AppleWebKit/537.36 (KHTML, like Gecko) Chrome/131.0.0.0 Safari/537.36" version="26.0.6">
  <diagram name="Página-1" id="pA1rQGJmWaQGo1QmMtAi">
    <mxGraphModel dx="1290" dy="530" grid="1" gridSize="10" guides="1" tooltips="1" connect="1" arrows="1" fold="1" page="1" pageScale="1" pageWidth="2910" pageHeight="1030" math="0" shadow="0">
      <root>
        <mxCell id="0" />
        <mxCell id="1" parent="0" />
        <mxCell id="lTPZUzIXuQvI7SsHR9lC-1" value="Pool" style="swimlane;html=1;childLayout=stackLayout;resizeParent=1;resizeParentMax=0;horizontal=1;startSize=20;horizontalStack=0;whiteSpace=wrap;" vertex="1" parent="1">
          <mxGeometry x="90" y="20" width="1070" height="380" as="geometry" />
        </mxCell>
        <mxCell id="lTPZUzIXuQvI7SsHR9lC-2" value="Lane 1" style="swimlane;html=1;startSize=20;horizontal=0;" vertex="1" parent="lTPZUzIXuQvI7SsHR9lC-1">
          <mxGeometry y="20" width="1070" height="120" as="geometry" />
        </mxCell>
        <mxCell id="lTPZUzIXuQvI7SsHR9lC-5" value="" style="points=[[0.145,0.145,0],[0.5,0,0],[0.855,0.145,0],[1,0.5,0],[0.855,0.855,0],[0.5,1,0],[0.145,0.855,0],[0,0.5,0]];shape=mxgraph.bpmn.event;html=1;verticalLabelPosition=bottom;labelBackgroundColor=#ffffff;verticalAlign=top;align=center;perimeter=ellipsePerimeter;outlineConnect=0;aspect=fixed;outline=standard;symbol=general;" vertex="1" parent="lTPZUzIXuQvI7SsHR9lC-2">
          <mxGeometry x="40" y="30" width="50" height="50" as="geometry" />
        </mxCell>
        <mxCell id="lTPZUzIXuQvI7SsHR9lC-9" style="edgeStyle=orthogonalEdgeStyle;rounded=0;orthogonalLoop=1;jettySize=auto;html=1;" edge="1" parent="lTPZUzIXuQvI7SsHR9lC-2" source="lTPZUzIXuQvI7SsHR9lC-6" target="lTPZUzIXuQvI7SsHR9lC-8">
          <mxGeometry relative="1" as="geometry" />
        </mxCell>
        <mxCell id="lTPZUzIXuQvI7SsHR9lC-6" value="&lt;font style=&quot;vertical-align: inherit;&quot;&gt;&lt;font style=&quot;vertical-align: inherit;&quot;&gt;Ingresar a OASIS&lt;/font&gt;&lt;/font&gt;" style="points=[[0.25,0,0],[0.5,0,0],[0.75,0,0],[1,0.25,0],[1,0.5,0],[1,0.75,0],[0.75,1,0],[0.5,1,0],[0.25,1,0],[0,0.75,0],[0,0.5,0],[0,0.25,0]];shape=mxgraph.bpmn.task;whiteSpace=wrap;rectStyle=rounded;size=10;html=1;container=1;expand=0;collapsible=0;taskMarker=user;" vertex="1" parent="lTPZUzIXuQvI7SsHR9lC-2">
          <mxGeometry x="120" y="15" width="120" height="80" as="geometry" />
        </mxCell>
        <mxCell id="lTPZUzIXuQvI7SsHR9lC-7" style="edgeStyle=orthogonalEdgeStyle;rounded=0;orthogonalLoop=1;jettySize=auto;html=1;entryX=0;entryY=0.5;entryDx=0;entryDy=0;entryPerimeter=0;" edge="1" parent="lTPZUzIXuQvI7SsHR9lC-2" source="lTPZUzIXuQvI7SsHR9lC-5" target="lTPZUzIXuQvI7SsHR9lC-6">
          <mxGeometry relative="1" as="geometry" />
        </mxCell>
        <mxCell id="lTPZUzIXuQvI7SsHR9lC-11" style="edgeStyle=orthogonalEdgeStyle;rounded=0;orthogonalLoop=1;jettySize=auto;html=1;" edge="1" parent="lTPZUzIXuQvI7SsHR9lC-2" source="lTPZUzIXuQvI7SsHR9lC-8" target="lTPZUzIXuQvI7SsHR9lC-10">
          <mxGeometry relative="1" as="geometry" />
        </mxCell>
        <mxCell id="lTPZUzIXuQvI7SsHR9lC-8" value="&lt;font style=&quot;vertical-align: inherit;&quot;&gt;&lt;font style=&quot;vertical-align: inherit;&quot;&gt;Seleccionar módulo erip&lt;/font&gt;&lt;/font&gt;" style="points=[[0.25,0,0],[0.5,0,0],[0.75,0,0],[1,0.25,0],[1,0.5,0],[1,0.75,0],[0.75,1,0],[0.5,1,0],[0.25,1,0],[0,0.75,0],[0,0.5,0],[0,0.25,0]];shape=mxgraph.bpmn.task;whiteSpace=wrap;rectStyle=rounded;size=10;html=1;container=1;expand=0;collapsible=0;taskMarker=manual;" vertex="1" parent="lTPZUzIXuQvI7SsHR9lC-2">
          <mxGeometry x="280" y="15" width="120" height="80" as="geometry" />
        </mxCell>
        <mxCell id="lTPZUzIXuQvI7SsHR9lC-10" value="&lt;font style=&quot;vertical-align: inherit;&quot;&gt;&lt;font style=&quot;vertical-align: inherit;&quot;&gt;Cargar RIPS&lt;/font&gt;&lt;/font&gt;" style="points=[[0.25,0,0],[0.5,0,0],[0.75,0,0],[1,0.25,0],[1,0.5,0],[1,0.75,0],[0.75,1,0],[0.5,1,0],[0.25,1,0],[0,0.75,0],[0,0.5,0],[0,0.25,0]];shape=mxgraph.bpmn.task;whiteSpace=wrap;rectStyle=rounded;size=10;html=1;container=1;expand=0;collapsible=0;taskMarker=manual;" vertex="1" parent="lTPZUzIXuQvI7SsHR9lC-2">
          <mxGeometry x="440" y="15" width="120" height="80" as="geometry" />
        </mxCell>
        <mxCell id="lTPZUzIXuQvI7SsHR9lC-3" value="Lane 2" style="swimlane;html=1;startSize=20;horizontal=0;" vertex="1" parent="lTPZUzIXuQvI7SsHR9lC-1">
          <mxGeometry y="140" width="1070" height="120" as="geometry" />
        </mxCell>
        <mxCell id="lTPZUzIXuQvI7SsHR9lC-4" value="Lane 3" style="swimlane;html=1;startSize=20;horizontal=0;" vertex="1" parent="lTPZUzIXuQvI7SsHR9lC-1">
          <mxGeometry y="260" width="1070" height="120" as="geometry" />
        </mxCell>
      </root>
    </mxGraphModel>
  </diagram>
</mxfile>
